<mxfile host="app.diagrams.net" agent="Mozilla/5.0 (Macintosh; Intel Mac OS X 10_15_7) AppleWebKit/537.36 (KHTML, like Gecko) Chrome/130.0.0.0 Safari/537.36" version="24.8.6">
  <diagram name="Page-1" id="XJSEP3GNmWB5ftduhLJC">
    <mxGraphModel dx="626" dy="650" grid="0" gridSize="10" guides="1" tooltips="1" connect="1" arrows="1" fold="1" page="0" pageScale="1" pageWidth="850" pageHeight="1100" math="0" shadow="0">
      <root>
        <mxCell id="0" />
        <mxCell id="1" parent="0" />
        <mxCell id="YbwDGyMakOkkDczVJa2m-119" value="Cyber War" style="rounded=1;whiteSpace=wrap;html=1;fillColor=default;dashed=1;align=center;verticalAlign=top;strokeColor=#0000FF;arcSize=7;" parent="1" vertex="1">
          <mxGeometry x="604" y="85" width="454" height="388" as="geometry" />
        </mxCell>
        <mxCell id="YbwDGyMakOkkDczVJa2m-32" value="Input" style="rounded=1;whiteSpace=wrap;html=1;fillColor=none;dashed=1;align=center;verticalAlign=top;strokeColor=#FF3333;" parent="1" vertex="1">
          <mxGeometry x="608" y="90" width="125" height="376" as="geometry" />
        </mxCell>
        <mxCell id="YbwDGyMakOkkDczVJa2m-30" value="Flip-Flop Synchronizer" style="rounded=1;whiteSpace=wrap;html=1;fillColor=none;dashed=1;align=center;verticalAlign=top;strokeColor=#d79b00;" parent="1" vertex="1">
          <mxGeometry x="612" y="115" width="91" height="164" as="geometry" />
        </mxCell>
        <mxCell id="YbwDGyMakOkkDczVJa2m-72" value="Lights" style="rounded=1;whiteSpace=wrap;html=1;fillColor=none;dashed=1;align=center;verticalAlign=top;strokeColor=#00CC00;" parent="1" vertex="1">
          <mxGeometry x="743" y="147" width="117" height="315" as="geometry" />
        </mxCell>
        <mxCell id="YbwDGyMakOkkDczVJa2m-94" value="&amp;nbsp;" style="rounded=0;orthogonalLoop=1;jettySize=auto;html=1;exitX=0.75;exitY=0;exitDx=0;exitDy=0;strokeColor=default;entryX=0;entryY=0.5;entryDx=0;entryDy=0;edgeStyle=orthogonalEdgeStyle;elbow=vertical;" parent="1" source="YbwDGyMakOkkDczVJa2m-75" target="YbwDGyMakOkkDczVJa2m-98" edge="1">
          <mxGeometry x="0.2187" y="1" relative="1" as="geometry">
            <mxPoint x="915" y="261" as="targetPoint" />
            <Array as="points">
              <mxPoint x="835" y="172" />
              <mxPoint x="883" y="172" />
            </Array>
            <mxPoint y="1" as="offset" />
          </mxGeometry>
        </mxCell>
        <mxCell id="YbwDGyMakOkkDczVJa2m-2" value="KEY0" style="endArrow=classic;html=1;rounded=0;entryX=0.5;entryY=0;entryDx=0;entryDy=0;edgeStyle=orthogonalEdgeStyle;" parent="1" target="YbwDGyMakOkkDczVJa2m-1" edge="1">
          <mxGeometry x="-0.9213" width="50" height="50" relative="1" as="geometry">
            <mxPoint x="562" y="156" as="sourcePoint" />
            <mxPoint x="599.5" y="156.25" as="targetPoint" />
            <mxPoint as="offset" />
          </mxGeometry>
        </mxCell>
        <mxCell id="YbwDGyMakOkkDczVJa2m-13" value="" style="edgeStyle=orthogonalEdgeStyle;rounded=0;orthogonalLoop=1;jettySize=auto;html=1;entryX=0.5;entryY=0;entryDx=0;entryDy=0;exitX=0.5;exitY=1;exitDx=0;exitDy=0;" parent="1" source="YbwDGyMakOkkDczVJa2m-1" target="hnYnm_ZRELx8Cw7HcKpT-2" edge="1">
          <mxGeometry relative="1" as="geometry">
            <mxPoint x="434" y="419.00000000000006" as="sourcePoint" />
            <mxPoint x="659.4999999999999" y="274.9999999999999" as="targetPoint" />
          </mxGeometry>
        </mxCell>
        <mxCell id="YbwDGyMakOkkDczVJa2m-35" value="" style="group" parent="1" vertex="1" connectable="0">
          <mxGeometry x="619" y="286" width="92" height="45" as="geometry" />
        </mxCell>
        <mxCell id="YbwDGyMakOkkDczVJa2m-25" value="&lt;div style=&quot;font-size: 16px;&quot;&gt;&lt;font style=&quot;font-size: 16px;&quot;&gt;Edge Detector&lt;/font&gt;&lt;/div&gt;" style="rounded=0;whiteSpace=wrap;html=1;" parent="YbwDGyMakOkkDczVJa2m-35" vertex="1">
          <mxGeometry width="92" height="45" as="geometry" />
        </mxCell>
        <mxCell id="YbwDGyMakOkkDczVJa2m-29" value="" style="triangle;whiteSpace=wrap;html=1;rotation=0;" parent="YbwDGyMakOkkDczVJa2m-35" vertex="1">
          <mxGeometry y="12.584745762711865" width="17.864077669902915" height="19.830508474576273" as="geometry" />
        </mxCell>
        <mxCell id="YbwDGyMakOkkDczVJa2m-37" value="" style="group" parent="1" vertex="1" connectable="0">
          <mxGeometry x="619" y="171" width="77" height="38" as="geometry" />
        </mxCell>
        <mxCell id="YbwDGyMakOkkDczVJa2m-1" value="&lt;font style=&quot;font-size: 16px;&quot;&gt;DFF&lt;/font&gt;" style="rounded=0;whiteSpace=wrap;html=1;" parent="YbwDGyMakOkkDczVJa2m-37" vertex="1">
          <mxGeometry width="77" height="38" as="geometry" />
        </mxCell>
        <mxCell id="YbwDGyMakOkkDczVJa2m-109" value="" style="triangle;whiteSpace=wrap;html=1;rotation=0;" parent="YbwDGyMakOkkDczVJa2m-37" vertex="1">
          <mxGeometry y="10.627118644067796" width="14.951456310679612" height="16.745762711864405" as="geometry" />
        </mxCell>
        <mxCell id="YbwDGyMakOkkDczVJa2m-48" value="" style="group" parent="1" vertex="1" connectable="0">
          <mxGeometry x="782" y="401" width="70" height="39" as="geometry" />
        </mxCell>
        <mxCell id="YbwDGyMakOkkDczVJa2m-45" value="&lt;div style=&quot;&quot;&gt;Light 1&lt;/div&gt;" style="rounded=0;whiteSpace=wrap;html=1;" parent="YbwDGyMakOkkDczVJa2m-48" vertex="1">
          <mxGeometry width="70" height="39" as="geometry" />
        </mxCell>
        <mxCell id="YbwDGyMakOkkDczVJa2m-46" value="" style="triangle;whiteSpace=wrap;html=1;rotation=-90;" parent="YbwDGyMakOkkDczVJa2m-48" vertex="1">
          <mxGeometry x="29" y="22.5" width="12" height="21" as="geometry" />
        </mxCell>
        <mxCell id="YbwDGyMakOkkDczVJa2m-49" value="" style="group" parent="1" vertex="1" connectable="0">
          <mxGeometry x="782" y="340" width="70" height="39" as="geometry" />
        </mxCell>
        <mxCell id="YbwDGyMakOkkDczVJa2m-50" value="&lt;div style=&quot;&quot;&gt;&lt;font style=&quot;font-size: 12px;&quot;&gt;Light 2&lt;/font&gt;&lt;/div&gt;" style="rounded=0;whiteSpace=wrap;html=1;" parent="YbwDGyMakOkkDczVJa2m-49" vertex="1">
          <mxGeometry width="70" height="39" as="geometry" />
        </mxCell>
        <mxCell id="YbwDGyMakOkkDczVJa2m-51" value="" style="triangle;whiteSpace=wrap;html=1;rotation=-90;" parent="YbwDGyMakOkkDczVJa2m-49" vertex="1">
          <mxGeometry x="29" y="22.5" width="12" height="21" as="geometry" />
        </mxCell>
        <mxCell id="YbwDGyMakOkkDczVJa2m-52" style="edgeStyle=orthogonalEdgeStyle;rounded=0;orthogonalLoop=1;jettySize=auto;html=1;exitX=0.25;exitY=0;exitDx=0;exitDy=0;entryX=0.25;entryY=1;entryDx=0;entryDy=0;" parent="1" source="YbwDGyMakOkkDczVJa2m-45" target="YbwDGyMakOkkDczVJa2m-50" edge="1">
          <mxGeometry relative="1" as="geometry" />
        </mxCell>
        <mxCell id="YbwDGyMakOkkDczVJa2m-55" style="edgeStyle=orthogonalEdgeStyle;rounded=0;orthogonalLoop=1;jettySize=auto;html=1;exitX=0.75;exitY=1;exitDx=0;exitDy=0;entryX=0.75;entryY=0;entryDx=0;entryDy=0;" parent="1" source="YbwDGyMakOkkDczVJa2m-50" target="YbwDGyMakOkkDczVJa2m-45" edge="1">
          <mxGeometry relative="1" as="geometry" />
        </mxCell>
        <mxCell id="YbwDGyMakOkkDczVJa2m-58" value="" style="group" parent="1" vertex="1" connectable="0">
          <mxGeometry x="782" y="279" width="70" height="39" as="geometry" />
        </mxCell>
        <mxCell id="YbwDGyMakOkkDczVJa2m-59" value="&lt;div style=&quot;&quot;&gt;&lt;font style=&quot;font-size: 12px;&quot;&gt;Light 3&lt;/font&gt;&lt;/div&gt;" style="rounded=0;whiteSpace=wrap;html=1;" parent="YbwDGyMakOkkDczVJa2m-58" vertex="1">
          <mxGeometry width="70" height="39" as="geometry" />
        </mxCell>
        <mxCell id="YbwDGyMakOkkDczVJa2m-60" value="" style="triangle;whiteSpace=wrap;html=1;rotation=-90;" parent="YbwDGyMakOkkDczVJa2m-58" vertex="1">
          <mxGeometry x="29" y="22.5" width="12" height="21" as="geometry" />
        </mxCell>
        <mxCell id="YbwDGyMakOkkDczVJa2m-61" style="edgeStyle=orthogonalEdgeStyle;rounded=0;orthogonalLoop=1;jettySize=auto;html=1;exitX=0.25;exitY=0;exitDx=0;exitDy=0;entryX=0.25;entryY=1;entryDx=0;entryDy=0;" parent="1" target="YbwDGyMakOkkDczVJa2m-59" edge="1">
          <mxGeometry relative="1" as="geometry">
            <mxPoint x="800" y="340" as="sourcePoint" />
          </mxGeometry>
        </mxCell>
        <mxCell id="YbwDGyMakOkkDczVJa2m-62" style="edgeStyle=orthogonalEdgeStyle;rounded=0;orthogonalLoop=1;jettySize=auto;html=1;exitX=0.75;exitY=1;exitDx=0;exitDy=0;entryX=0.75;entryY=0;entryDx=0;entryDy=0;" parent="1" source="YbwDGyMakOkkDczVJa2m-59" edge="1">
          <mxGeometry relative="1" as="geometry">
            <mxPoint x="835" y="340" as="targetPoint" />
          </mxGeometry>
        </mxCell>
        <mxCell id="YbwDGyMakOkkDczVJa2m-79" style="edgeStyle=orthogonalEdgeStyle;rounded=0;orthogonalLoop=1;jettySize=auto;html=1;exitX=0.75;exitY=1;exitDx=0;exitDy=0;entryX=0.75;entryY=0;entryDx=0;entryDy=0;" parent="1" source="YbwDGyMakOkkDczVJa2m-71" target="YbwDGyMakOkkDczVJa2m-59" edge="1">
          <mxGeometry relative="1" as="geometry" />
        </mxCell>
        <mxCell id="YbwDGyMakOkkDczVJa2m-81" style="edgeStyle=orthogonalEdgeStyle;rounded=0;orthogonalLoop=1;jettySize=auto;html=1;exitX=0.25;exitY=0;exitDx=0;exitDy=0;entryX=0.25;entryY=1;entryDx=0;entryDy=0;" parent="1" source="YbwDGyMakOkkDczVJa2m-71" target="YbwDGyMakOkkDczVJa2m-75" edge="1">
          <mxGeometry relative="1" as="geometry" />
        </mxCell>
        <mxCell id="YbwDGyMakOkkDczVJa2m-71" value="..." style="text;html=1;align=center;verticalAlign=middle;whiteSpace=wrap;rounded=0;" parent="1" vertex="1">
          <mxGeometry x="782" y="230" width="70" height="34" as="geometry" />
        </mxCell>
        <mxCell id="YbwDGyMakOkkDczVJa2m-65" style="edgeStyle=orthogonalEdgeStyle;rounded=0;orthogonalLoop=1;jettySize=auto;html=1;exitX=0.25;exitY=0;exitDx=0;exitDy=0;entryX=0.25;entryY=1;entryDx=0;entryDy=0;" parent="1" source="YbwDGyMakOkkDczVJa2m-59" target="YbwDGyMakOkkDczVJa2m-71" edge="1">
          <mxGeometry relative="1" as="geometry">
            <mxPoint x="799.5999999999999" y="261.6" as="targetPoint" />
          </mxGeometry>
        </mxCell>
        <mxCell id="YbwDGyMakOkkDczVJa2m-80" style="edgeStyle=orthogonalEdgeStyle;rounded=0;orthogonalLoop=1;jettySize=auto;html=1;exitX=0.75;exitY=1;exitDx=0;exitDy=0;entryX=0.75;entryY=0;entryDx=0;entryDy=0;" parent="1" source="YbwDGyMakOkkDczVJa2m-75" target="YbwDGyMakOkkDczVJa2m-71" edge="1">
          <mxGeometry relative="1" as="geometry" />
        </mxCell>
        <mxCell id="YbwDGyMakOkkDczVJa2m-88" value="LEDRs" style="rounded=0;whiteSpace=wrap;html=1;strokeColor=none;fillColor=none;" parent="1" vertex="1">
          <mxGeometry x="848" y="37" width="66" height="29" as="geometry" />
        </mxCell>
        <mxCell id="YbwDGyMakOkkDczVJa2m-89" style="edgeStyle=orthogonalEdgeStyle;rounded=0;orthogonalLoop=1;jettySize=auto;html=1;exitX=1;exitY=0.5;exitDx=0;exitDy=0;entryX=0.5;entryY=1;entryDx=0;entryDy=0;" parent="1" source="YbwDGyMakOkkDczVJa2m-75" target="YbwDGyMakOkkDczVJa2m-88" edge="1">
          <mxGeometry relative="1" as="geometry" />
        </mxCell>
        <mxCell id="YbwDGyMakOkkDczVJa2m-90" style="edgeStyle=orthogonalEdgeStyle;rounded=0;orthogonalLoop=1;jettySize=auto;html=1;exitX=1;exitY=0.5;exitDx=0;exitDy=0;entryX=0.5;entryY=1;entryDx=0;entryDy=0;" parent="1" source="YbwDGyMakOkkDczVJa2m-59" target="YbwDGyMakOkkDczVJa2m-88" edge="1">
          <mxGeometry relative="1" as="geometry" />
        </mxCell>
        <mxCell id="YbwDGyMakOkkDczVJa2m-91" style="edgeStyle=orthogonalEdgeStyle;rounded=0;orthogonalLoop=1;jettySize=auto;html=1;exitX=1;exitY=0.5;exitDx=0;exitDy=0;entryX=0.5;entryY=1;entryDx=0;entryDy=0;" parent="1" source="YbwDGyMakOkkDczVJa2m-50" target="YbwDGyMakOkkDczVJa2m-88" edge="1">
          <mxGeometry relative="1" as="geometry" />
        </mxCell>
        <mxCell id="YbwDGyMakOkkDczVJa2m-102" style="edgeStyle=orthogonalEdgeStyle;rounded=0;orthogonalLoop=1;jettySize=auto;html=1;exitX=0.5;exitY=0;exitDx=0;exitDy=0;entryX=0.5;entryY=1;entryDx=0;entryDy=0;" parent="1" source="YbwDGyMakOkkDczVJa2m-98" target="YbwDGyMakOkkDczVJa2m-101" edge="1">
          <mxGeometry relative="1" as="geometry" />
        </mxCell>
        <mxCell id="YbwDGyMakOkkDczVJa2m-98" value="Cyber Counter" style="rounded=0;whiteSpace=wrap;html=1;" parent="1" vertex="1">
          <mxGeometry x="914" y="156" width="66" height="31" as="geometry" />
        </mxCell>
        <mxCell id="YbwDGyMakOkkDczVJa2m-75" value="&lt;div style=&quot;&quot;&gt;&lt;font style=&quot;font-size: 12px;&quot;&gt;Light 9&lt;/font&gt;&lt;/div&gt;" style="rounded=0;whiteSpace=wrap;html=1;" parent="1" vertex="1">
          <mxGeometry x="782" y="177" width="70" height="39" as="geometry" />
        </mxCell>
        <mxCell id="YbwDGyMakOkkDczVJa2m-76" value="" style="triangle;whiteSpace=wrap;html=1;rotation=-90;" parent="1" vertex="1">
          <mxGeometry x="811" y="199.5" width="12" height="21" as="geometry" />
        </mxCell>
        <mxCell id="YbwDGyMakOkkDczVJa2m-101" value="HEX5" style="rounded=0;whiteSpace=wrap;html=1;strokeColor=none;fillColor=none;" parent="1" vertex="1">
          <mxGeometry x="914" y="37" width="66" height="29" as="geometry" />
        </mxCell>
        <mxCell id="YbwDGyMakOkkDczVJa2m-92" style="edgeStyle=orthogonalEdgeStyle;rounded=0;orthogonalLoop=1;jettySize=auto;html=1;exitX=1;exitY=0.5;exitDx=0;exitDy=0;entryX=0.5;entryY=1;entryDx=0;entryDy=0;" parent="1" source="YbwDGyMakOkkDczVJa2m-45" target="YbwDGyMakOkkDczVJa2m-88" edge="1">
          <mxGeometry relative="1" as="geometry" />
        </mxCell>
        <mxCell id="YbwDGyMakOkkDczVJa2m-105" style="edgeStyle=orthogonalEdgeStyle;rounded=0;orthogonalLoop=1;jettySize=auto;html=1;exitX=1;exitY=0.75;exitDx=0;exitDy=0;entryX=0.5;entryY=1;entryDx=0;entryDy=0;" parent="1" source="YbwDGyMakOkkDczVJa2m-45" target="hnYnm_ZRELx8Cw7HcKpT-36" edge="1">
          <mxGeometry relative="1" as="geometry" />
        </mxCell>
        <mxCell id="hnYnm_ZRELx8Cw7HcKpT-1" value="" style="group" vertex="1" connectable="0" parent="1">
          <mxGeometry x="619" y="230" width="77" height="38" as="geometry" />
        </mxCell>
        <mxCell id="hnYnm_ZRELx8Cw7HcKpT-2" value="&lt;font style=&quot;font-size: 16px;&quot;&gt;DFF&lt;/font&gt;" style="rounded=0;whiteSpace=wrap;html=1;" vertex="1" parent="hnYnm_ZRELx8Cw7HcKpT-1">
          <mxGeometry width="77" height="38" as="geometry" />
        </mxCell>
        <mxCell id="hnYnm_ZRELx8Cw7HcKpT-3" value="" style="triangle;whiteSpace=wrap;html=1;rotation=0;" vertex="1" parent="hnYnm_ZRELx8Cw7HcKpT-1">
          <mxGeometry y="10.627118644067796" width="14.951456310679612" height="16.745762711864405" as="geometry" />
        </mxCell>
        <mxCell id="hnYnm_ZRELx8Cw7HcKpT-5" style="edgeStyle=elbowEdgeStyle;rounded=0;orthogonalLoop=1;jettySize=auto;html=1;exitX=0.5;exitY=1;exitDx=0;exitDy=0;entryX=0.5;entryY=0;entryDx=0;entryDy=0;elbow=vertical;" edge="1" parent="1" source="hnYnm_ZRELx8Cw7HcKpT-2" target="YbwDGyMakOkkDczVJa2m-25">
          <mxGeometry relative="1" as="geometry">
            <Array as="points">
              <mxPoint x="661" y="273" />
            </Array>
          </mxGeometry>
        </mxCell>
        <mxCell id="hnYnm_ZRELx8Cw7HcKpT-6" value="" style="group" vertex="1" connectable="0" parent="1">
          <mxGeometry x="619" y="356" width="77" height="38" as="geometry" />
        </mxCell>
        <mxCell id="hnYnm_ZRELx8Cw7HcKpT-7" value="&lt;font style=&quot;font-size: 16px;&quot;&gt;LFSR&lt;/font&gt;" style="rounded=0;whiteSpace=wrap;html=1;" vertex="1" parent="hnYnm_ZRELx8Cw7HcKpT-6">
          <mxGeometry width="77" height="38" as="geometry" />
        </mxCell>
        <mxCell id="hnYnm_ZRELx8Cw7HcKpT-8" value="" style="triangle;whiteSpace=wrap;html=1;rotation=0;" vertex="1" parent="hnYnm_ZRELx8Cw7HcKpT-6">
          <mxGeometry y="10.627118644067796" width="14.951456310679612" height="16.745762711864405" as="geometry" />
        </mxCell>
        <mxCell id="hnYnm_ZRELx8Cw7HcKpT-25" value="&lt;font style=&quot;font-size: 8px;&quot;&gt;Reset&lt;/font&gt;" style="rounded=0;orthogonalLoop=1;jettySize=auto;html=1;exitX=1;exitY=0.5;exitDx=0;exitDy=0;endArrow=none;endFill=0;edgeStyle=orthogonalEdgeStyle;" edge="1" parent="1" source="hnYnm_ZRELx8Cw7HcKpT-9">
          <mxGeometry x="0.3479" y="1" relative="1" as="geometry">
            <mxPoint x="717" y="309" as="targetPoint" />
            <mxPoint as="offset" />
          </mxGeometry>
        </mxCell>
        <mxCell id="hnYnm_ZRELx8Cw7HcKpT-34" style="edgeStyle=orthogonalEdgeStyle;rounded=0;orthogonalLoop=1;jettySize=auto;html=1;exitX=1;exitY=0.5;exitDx=0;exitDy=0;entryX=0.5;entryY=0;entryDx=0;entryDy=0;endSize=5;" edge="1" parent="1" source="hnYnm_ZRELx8Cw7HcKpT-9" target="hnYnm_ZRELx8Cw7HcKpT-7">
          <mxGeometry relative="1" as="geometry">
            <Array as="points">
              <mxPoint x="656" y="344" />
              <mxPoint x="656" y="342" />
              <mxPoint x="658" y="342" />
            </Array>
          </mxGeometry>
        </mxCell>
        <mxCell id="hnYnm_ZRELx8Cw7HcKpT-9" value="SW9" style="text;html=1;align=center;verticalAlign=middle;whiteSpace=wrap;rounded=0;" vertex="1" parent="1">
          <mxGeometry x="544" y="335" width="39" height="17" as="geometry" />
        </mxCell>
        <mxCell id="hnYnm_ZRELx8Cw7HcKpT-11" value="" style="group" vertex="1" connectable="0" parent="1">
          <mxGeometry x="619" y="406" width="77" height="38" as="geometry" />
        </mxCell>
        <mxCell id="hnYnm_ZRELx8Cw7HcKpT-12" value="&lt;font style=&quot;font-size: 16px;&quot;&gt;Adder&lt;/font&gt;" style="rounded=0;whiteSpace=wrap;html=1;" vertex="1" parent="hnYnm_ZRELx8Cw7HcKpT-11">
          <mxGeometry width="77" height="38" as="geometry" />
        </mxCell>
        <mxCell id="hnYnm_ZRELx8Cw7HcKpT-13" value="" style="triangle;whiteSpace=wrap;html=1;rotation=0;" vertex="1" parent="hnYnm_ZRELx8Cw7HcKpT-11">
          <mxGeometry y="10.627118644067796" width="14.951456310679612" height="16.745762711864405" as="geometry" />
        </mxCell>
        <mxCell id="hnYnm_ZRELx8Cw7HcKpT-14" style="edgeStyle=orthogonalEdgeStyle;rounded=0;orthogonalLoop=1;jettySize=auto;html=1;exitX=0.5;exitY=1;exitDx=0;exitDy=0;entryX=0.5;entryY=0;entryDx=0;entryDy=0;" edge="1" parent="1" source="hnYnm_ZRELx8Cw7HcKpT-7" target="hnYnm_ZRELx8Cw7HcKpT-12">
          <mxGeometry relative="1" as="geometry" />
        </mxCell>
        <mxCell id="hnYnm_ZRELx8Cw7HcKpT-35" style="edgeStyle=orthogonalEdgeStyle;rounded=0;orthogonalLoop=1;jettySize=auto;html=1;exitX=1;exitY=0.5;exitDx=0;exitDy=0;entryX=0;entryY=0.25;entryDx=0;entryDy=0;" edge="1" parent="1" source="hnYnm_ZRELx8Cw7HcKpT-16" target="hnYnm_ZRELx8Cw7HcKpT-12">
          <mxGeometry relative="1" as="geometry" />
        </mxCell>
        <mxCell id="hnYnm_ZRELx8Cw7HcKpT-16" value="SW8-0" style="text;html=1;align=center;verticalAlign=middle;whiteSpace=wrap;rounded=0;" vertex="1" parent="1">
          <mxGeometry x="544" y="406" width="39" height="17" as="geometry" />
        </mxCell>
        <mxCell id="hnYnm_ZRELx8Cw7HcKpT-18" style="edgeStyle=orthogonalEdgeStyle;rounded=0;orthogonalLoop=1;jettySize=auto;html=1;exitX=1;exitY=0.5;exitDx=0;exitDy=0;entryX=0;entryY=0.5;entryDx=0;entryDy=0;" edge="1" parent="1" source="YbwDGyMakOkkDczVJa2m-25" target="YbwDGyMakOkkDczVJa2m-71">
          <mxGeometry relative="1" as="geometry" />
        </mxCell>
        <mxCell id="hnYnm_ZRELx8Cw7HcKpT-19" style="edgeStyle=orthogonalEdgeStyle;rounded=0;orthogonalLoop=1;jettySize=auto;html=1;exitX=1;exitY=0.5;exitDx=0;exitDy=0;entryX=0;entryY=0.5;entryDx=0;entryDy=0;" edge="1" parent="1" source="YbwDGyMakOkkDczVJa2m-25" target="YbwDGyMakOkkDczVJa2m-75">
          <mxGeometry relative="1" as="geometry" />
        </mxCell>
        <mxCell id="hnYnm_ZRELx8Cw7HcKpT-20" style="edgeStyle=orthogonalEdgeStyle;rounded=0;orthogonalLoop=1;jettySize=auto;html=1;exitX=1;exitY=0.5;exitDx=0;exitDy=0;entryX=0;entryY=0.5;entryDx=0;entryDy=0;" edge="1" parent="1" source="YbwDGyMakOkkDczVJa2m-25" target="YbwDGyMakOkkDczVJa2m-59">
          <mxGeometry relative="1" as="geometry" />
        </mxCell>
        <mxCell id="hnYnm_ZRELx8Cw7HcKpT-21" style="edgeStyle=orthogonalEdgeStyle;rounded=0;orthogonalLoop=1;jettySize=auto;html=1;exitX=1;exitY=0.5;exitDx=0;exitDy=0;entryX=0;entryY=0.5;entryDx=0;entryDy=0;" edge="1" parent="1" source="YbwDGyMakOkkDczVJa2m-25" target="YbwDGyMakOkkDczVJa2m-50">
          <mxGeometry relative="1" as="geometry" />
        </mxCell>
        <mxCell id="hnYnm_ZRELx8Cw7HcKpT-22" value="/" style="edgeStyle=orthogonalEdgeStyle;rounded=0;orthogonalLoop=1;jettySize=auto;html=1;exitX=1;exitY=0.5;exitDx=0;exitDy=0;entryX=0;entryY=0.5;entryDx=0;entryDy=0;" edge="1" parent="1" source="YbwDGyMakOkkDczVJa2m-25" target="YbwDGyMakOkkDczVJa2m-45">
          <mxGeometry x="-0.7049" relative="1" as="geometry">
            <mxPoint as="offset" />
          </mxGeometry>
        </mxCell>
        <mxCell id="hnYnm_ZRELx8Cw7HcKpT-24" value="&lt;font style=&quot;font-size: 8px;&quot;&gt;Cyber Input&lt;/font&gt;" style="endArrow=none;html=1;rounded=0;exitX=1;exitY=0.5;exitDx=0;exitDy=0;edgeStyle=elbowEdgeStyle;horizontal=0;" edge="1" parent="1" source="hnYnm_ZRELx8Cw7HcKpT-12">
          <mxGeometry x="-0.3249" y="5" width="50" height="50" relative="1" as="geometry">
            <mxPoint x="727" y="387" as="sourcePoint" />
            <mxPoint x="746" y="308.5" as="targetPoint" />
            <mxPoint as="offset" />
          </mxGeometry>
        </mxCell>
        <mxCell id="hnYnm_ZRELx8Cw7HcKpT-29" value="&lt;font style=&quot;font-size: 8px;&quot;&gt;Soft Reset&lt;/font&gt;" style="edgeStyle=orthogonalEdgeStyle;rounded=0;orthogonalLoop=1;jettySize=auto;html=1;exitX=1;exitY=0.5;exitDx=0;exitDy=0;endArrow=none;endFill=0;" edge="1" parent="1" source="hnYnm_ZRELx8Cw7HcKpT-27">
          <mxGeometry x="-0.1817" y="1" relative="1" as="geometry">
            <mxPoint x="725" y="309" as="targetPoint" />
            <mxPoint as="offset" />
          </mxGeometry>
        </mxCell>
        <mxCell id="hnYnm_ZRELx8Cw7HcKpT-27" value="KEY3" style="text;html=1;align=center;verticalAlign=middle;whiteSpace=wrap;rounded=0;" vertex="1" parent="1">
          <mxGeometry x="546.75" y="446" width="33.5" height="16" as="geometry" />
        </mxCell>
        <mxCell id="hnYnm_ZRELx8Cw7HcKpT-38" style="edgeStyle=orthogonalEdgeStyle;rounded=0;orthogonalLoop=1;jettySize=auto;html=1;exitX=0.5;exitY=0;exitDx=0;exitDy=0;entryX=0.5;entryY=1;entryDx=0;entryDy=0;" edge="1" parent="1" source="hnYnm_ZRELx8Cw7HcKpT-36" target="hnYnm_ZRELx8Cw7HcKpT-37">
          <mxGeometry relative="1" as="geometry" />
        </mxCell>
        <mxCell id="hnYnm_ZRELx8Cw7HcKpT-36" value="Player Counter" style="rounded=0;whiteSpace=wrap;html=1;" vertex="1" parent="1">
          <mxGeometry x="986" y="156" width="66" height="31" as="geometry" />
        </mxCell>
        <mxCell id="hnYnm_ZRELx8Cw7HcKpT-37" value="HEX0" style="rounded=0;whiteSpace=wrap;html=1;strokeColor=none;fillColor=none;" vertex="1" parent="1">
          <mxGeometry x="986" y="37" width="66" height="29" as="geometry" />
        </mxCell>
        <mxCell id="hnYnm_ZRELx8Cw7HcKpT-39" value="" style="ellipse;whiteSpace=wrap;html=1;aspect=fixed;fillColor=#000000;" vertex="1" parent="1">
          <mxGeometry x="716" y="307.5" width="2" height="2" as="geometry" />
        </mxCell>
        <mxCell id="hnYnm_ZRELx8Cw7HcKpT-41" value="" style="endArrow=none;html=1;rounded=0;edgeStyle=elbowEdgeStyle;endFill=0;" edge="1" parent="1" source="hnYnm_ZRELx8Cw7HcKpT-45">
          <mxGeometry x="0.4629" y="1" width="50" height="50" relative="1" as="geometry">
            <mxPoint x="717" y="308" as="sourcePoint" />
            <mxPoint x="1003" y="136" as="targetPoint" />
            <Array as="points">
              <mxPoint x="717" y="219" />
            </Array>
            <mxPoint as="offset" />
          </mxGeometry>
        </mxCell>
        <mxCell id="hnYnm_ZRELx8Cw7HcKpT-43" value="" style="endArrow=classic;html=1;rounded=0;entryX=0.25;entryY=0;entryDx=0;entryDy=0;" edge="1" parent="1" target="YbwDGyMakOkkDczVJa2m-98">
          <mxGeometry width="50" height="50" relative="1" as="geometry">
            <mxPoint x="930.5" y="136" as="sourcePoint" />
            <mxPoint x="941" y="135" as="targetPoint" />
          </mxGeometry>
        </mxCell>
        <mxCell id="hnYnm_ZRELx8Cw7HcKpT-44" value="" style="endArrow=classic;html=1;rounded=0;entryX=0.25;entryY=0;entryDx=0;entryDy=0;" edge="1" parent="1" target="hnYnm_ZRELx8Cw7HcKpT-36">
          <mxGeometry width="50" height="50" relative="1" as="geometry">
            <mxPoint x="1002.5" y="136" as="sourcePoint" />
            <mxPoint x="1009.5" y="143" as="targetPoint" />
          </mxGeometry>
        </mxCell>
        <mxCell id="hnYnm_ZRELx8Cw7HcKpT-46" value="" style="endArrow=none;html=1;rounded=0;edgeStyle=elbowEdgeStyle;endFill=0;" edge="1" parent="1" target="hnYnm_ZRELx8Cw7HcKpT-45">
          <mxGeometry x="0.4629" y="1" width="50" height="50" relative="1" as="geometry">
            <mxPoint x="717" y="308" as="sourcePoint" />
            <mxPoint x="1003" y="136" as="targetPoint" />
            <Array as="points">
              <mxPoint x="717" y="224" />
            </Array>
            <mxPoint as="offset" />
          </mxGeometry>
        </mxCell>
        <mxCell id="hnYnm_ZRELx8Cw7HcKpT-45" value="" style="rounded=0;whiteSpace=wrap;html=1;strokeColor=none;" vertex="1" parent="1">
          <mxGeometry x="878.5" y="133" width="2" height="6" as="geometry" />
        </mxCell>
        <mxCell id="hnYnm_ZRELx8Cw7HcKpT-47" value="" style="rounded=0;whiteSpace=wrap;html=1;strokeColor=none;" vertex="1" parent="1">
          <mxGeometry x="881.5" y="133" width="2" height="6" as="geometry" />
        </mxCell>
        <mxCell id="hnYnm_ZRELx8Cw7HcKpT-48" value="" style="rounded=0;whiteSpace=wrap;html=1;strokeColor=none;" vertex="1" parent="1">
          <mxGeometry x="878.5" y="169" width="2" height="6" as="geometry" />
        </mxCell>
        <mxCell id="hnYnm_ZRELx8Cw7HcKpT-49" value="" style="rounded=0;whiteSpace=wrap;html=1;strokeColor=none;" vertex="1" parent="1">
          <mxGeometry x="944.5" y="133" width="2" height="6" as="geometry" />
        </mxCell>
        <mxCell id="hnYnm_ZRELx8Cw7HcKpT-50" value="" style="rounded=0;whiteSpace=wrap;html=1;strokeColor=none;" vertex="1" parent="1">
          <mxGeometry x="947.5" y="133" width="2" height="6" as="geometry" />
        </mxCell>
        <mxCell id="hnYnm_ZRELx8Cw7HcKpT-51" value="" style="ellipse;whiteSpace=wrap;html=1;aspect=fixed;fillColor=#000000;" vertex="1" parent="1">
          <mxGeometry x="720" y="307.5" width="2" height="2" as="geometry" />
        </mxCell>
        <mxCell id="hnYnm_ZRELx8Cw7HcKpT-52" value="" style="endArrow=none;html=1;rounded=0;" edge="1" parent="1">
          <mxGeometry width="50" height="50" relative="1" as="geometry">
            <mxPoint x="721" y="308" as="sourcePoint" />
            <mxPoint x="722" y="136" as="targetPoint" />
          </mxGeometry>
        </mxCell>
        <mxCell id="hnYnm_ZRELx8Cw7HcKpT-53" value="" style="endArrow=none;html=1;rounded=0;" edge="1" parent="1">
          <mxGeometry width="50" height="50" relative="1" as="geometry">
            <mxPoint x="739" y="141.5" as="sourcePoint" />
            <mxPoint x="749" y="130.5" as="targetPoint" />
          </mxGeometry>
        </mxCell>
        <mxCell id="hnYnm_ZRELx8Cw7HcKpT-55" value="" style="rounded=0;whiteSpace=wrap;html=1;strokeColor=none;rotation=90;" vertex="1" parent="1">
          <mxGeometry x="656" y="339.00000000000006" width="2" height="6" as="geometry" />
        </mxCell>
      </root>
    </mxGraphModel>
  </diagram>
</mxfile>
